<svg xmlns="http://www.w3.org/2000/svg" width="32" height="32" viewBox="0 0 1024 1024">
    <g>
        <path
            d="M 500.97,764.31 C498.86,762.86 422.92,688.60 368.75,635.01 C352.05,618.48 352.00,618.42 352.00,613.97 C352.01,608.28 354.68,603.85 359.48,601.58 C366.27,598.35 368.71,599.62 383.89,614.29 C402.69,632.44 441.84,670.89 477.14,705.87 C493.44,722.02 507.25,735.07 507.82,734.87 C508.40,734.67 533.08,710.65 562.68,681.50 C640.59,604.77 643.21,602.25 646.49,601.00 C657.08,596.98 667.91,608.56 662.36,617.97 C660.85,620.52 544.33,735.63 521.77,756.85 C512.62,765.46 511.79,766.00 507.75,766.00 C505.35,766.00 502.35,765.25 500.97,764.31 M 497.23,681.52 C488.49,673.66 487.01,666.70 492.66,659.99 C496.00,656.03 500.00,654.00 504.51,654.00 C507.93,654.00 510.77,651.42 557.16,606.04 C592.38,571.60 607.17,557.77 609.66,556.95 C619.28,553.77 628.59,561.50 626.52,570.93 C626.04,573.08 610.95,588.57 569.00,629.93 L 512.13,686.00 L 507.18,686.00 C502.71,686.00 501.72,685.55 497.23,681.52 M 458.50,641.12 C456.85,640.09 440.81,624.68 422.86,606.87 C387.71,572.02 387.44,571.66 390.39,564.61 C393.08,558.18 400.91,554.66 406.83,557.22 C409.99,558.58 472.42,619.58 475.46,624.27 C476.78,626.30 477.12,628.25 476.75,631.56 C476.17,636.68 473.97,639.66 469.28,641.64 C464.92,643.48 462.07,643.35 458.50,641.12 M 487.72,590.47 C469.82,573.37 466.00,568.85 466.00,564.75 C466.00,561.35 472.53,554.16 492.21,535.88 C508.98,520.31 507.91,520.04 533.75,546.21 C553.71,566.41 553.55,564.87 537.25,581.00 C530.79,587.40 522.47,595.41 518.78,598.81 C512.59,604.50 511.69,605.00 507.50,605.00 C503.00,605.00 502.76,604.82 487.72,590.47 M 336.33,554.88 C330.52,553.24 326.10,546.01 327.41,540.25 C328.01,537.58 396.16,469.13 453.17,413.95 C475.62,392.21 475.88,392.00 480.17,392.00 C489.05,392.01 495.39,399.40 493.10,407.07 C492.22,410.00 477.94,424.72 421.99,480.36 C383.48,518.65 350.30,551.06 348.24,552.38 C343.59,555.36 340.41,556.03 336.33,554.88 M 670.47,555.05 C667.69,553.92 526.61,414.73 524.05,410.58 C517.70,400.30 528.68,388.51 540.45,392.98 C541.87,393.52 564.74,415.45 591.27,441.71 C617.79,467.98 648.66,498.47 659.86,509.48 C684.27,533.48 688.00,537.87 688.00,542.64 C688.00,547.89 685.43,551.90 680.68,554.06 C676.18,556.10 673.67,556.35 670.47,555.05 M 430.89,538.50 C424.39,534.97 422.76,526.83 427.25,520.38 C431.34,514.53 500.58,447.11 503.75,445.90 C509.17,443.82 512.71,446.04 526.73,460.30 C541.47,475.29 542.76,477.78 539.35,484.64 C536.74,489.89 532.79,492.50 527.45,492.50 C523.33,492.50 522.59,492.05 515.75,485.25 C511.74,481.26 507.83,478.00 507.08,478.00 C506.32,478.00 492.82,490.82 477.07,506.48 C461.33,522.14 446.91,536.09 445.03,537.48 C441.12,540.36 435.11,540.80 430.89,538.50 M 560.80,528.20 C549.39,516.80 549.00,516.27 549.00,512.11 C549.00,504.21 555.63,498.28 563.32,499.32 C566.76,499.78 568.78,501.29 577.76,510.18 C588.80,521.09 591.47,525.24 590.36,529.76 C588.73,536.36 583.75,540.00 576.33,540.00 C572.89,540.00 571.65,539.06 560.80,528.20 M 496.33,357.91 C489.97,355.46 483.92,349.74 480.45,342.90 C473.04,328.28 478.81,309.31 493.01,301.59 C499.96,297.81 510.25,296.93 517.88,299.46 C524.75,301.74 533.05,309.37 535.92,316.04 C539.37,324.05 539.01,334.50 535.02,342.61 C527.73,357.42 511.62,363.79 496.33,357.91 Z"
            />
    </g>
</svg>